<svg xmlns="http://www.w3.org/2000/svg" width="124" height="52" fill="none"><path fill="#fff" d="M73.214 11.511H54.812l1.234 2.278-4.63-.54-.93-1.74h-2.23l-.009.09.687 1.268-.808-.093-.118 1.145.911.124-1.098 1.696-.716 6.975 1.827 3.375-2.148-.251-.085.837 2.385.304 3.243 5.992-4.63-.541-1.331-2.492-.687 6.69 2.006-3.114 4.63.63-3.244 5.013-3.602-.488-.108 1.056 3.725.474 3.244 5.992-4.63-.542-2.472-4.62-.568 5.532 10.117-.024-3.197-5.973 4.41.561.112-1.088-4.513-.612 3.223-5.02 4.663.637-.38.578h12.297c7.453-.434 11.588-4.465 12.401-12.093.814-7.628-2.711-11.635-10.577-12.018m-21.798 2.795 4.663.637-3.292 5.006-4.592-.622 3.221-5.019v-.002Zm-3.23 6.158 4.618.588 3.244 5.992-4.63-.541-3.23-6.039h-.001Zm6.624 12.888-3.23-6.039 4.618.588 3.244 5.992-4.63-.541h-.002Zm19.599-9.81c-.3 1.86-1.436 2.782-3.406 2.766l-13.34.05.616-6.084h13.34c2.16.318 3.087 1.406 2.788 3.267M33.521 11.347l-12.183-.025C3.244 11.06 8.125 35.196 5.558 46.426h9.92l2.031-19.38c.52-3.029-.384-7.56 4.216-7.437l9.665-.025c3.59.254 2.366 4.784 2.083 7.462l-2.03 19.43h9.56l2.468-23.987c.43-6.96-2.888-10.674-9.946-11.142M96.446 22.488l-8.725 4.481.787-6.397L97.3 16.11l-.855 6.379ZM106.18 20.554l-7.305-4.468-.912 6.381 7.298 4.484.919-6.397ZM104.88 30.399l-7.308-4.452-.907 6.345 7.289 4.55.926-6.443ZM103.43 40.114l-7.308-4.429-.912 6.357 7.298 4.495.922-6.423ZM115.698 22.488l-8.725 4.481.787-6.397 8.793-4.463-.855 6.379ZM114.356 32.314l-8.725 4.481.787-6.397 8.793-4.463-.855 6.379ZM113.059 42.052l-8.722 4.481.786-6.397 8.792-4.463-.856 6.379ZM95.056 32.314l-8.722 4.481.786-6.397 8.793-4.463-.857 6.379ZM93.715 42.052l-8.723 4.481.786-6.397 8.794-4.463-.858 6.379Z"/><path fill="#fff" d="M120.683 17.302s-7.184-6.401-16.81-6.267c-9.626.136-16.44 6.267-16.44 6.267l-.175-6.514s6.063-6.515 16.615-6.515c10.551 0 16.987 6.41 16.987 6.41l-.179 6.62h.002ZM22.26 31.965l-4.524 2.325.408-3.318 4.561-2.315-.445 3.308ZM27.31 30.964l-3.789-2.317-.474 3.31 3.787 2.323.476-3.316ZM26.636 36.07l-3.79-2.309-.471 3.29 3.78 2.36.481-3.341ZM32.246 31.965 27.72 34.29l.41-3.318 4.56-2.315-.444 3.308ZM31.549 37.063l-4.524 2.325.408-3.318 4.561-2.315-.445 3.308ZM21.54 37.063l-4.523 2.325.407-3.318 4.561-2.315-.445 3.308Z"/></svg>